<svg width="300" height="400" viewBox="0 0 300 400" xmlns="http://www.w3.org/2000/svg">
  <!-- Background -->
  <rect width="300" height="400" fill="#f8f9fa"/>
  
  <!-- Floor -->
  <rect x="0" y="380" width="300" height="20" fill="#e9ecef"/>
  
  <!-- Rowing machine/cable -->
  <rect x="200" y="320" width="80" height="40" rx="5" fill="#6c757d"/>
  <line x1="200" y1="340" x2="160" y2="180" stroke="#2c2c2c" stroke-width="3"/>
  
  <!-- Figure in rowing position -->
  <!-- Head -->
  <circle cx="120" cy="140" r="16" fill="#fdbcb4"/>
  
  <!-- Torso (slightly leaning back) -->
  <rect x="115" y="155" width="18" height="45" rx="9" fill="#007bff" transform="rotate(-10 124 177.5)"/>
  
  <!-- Arms pulling -->
  <rect x="100" y="165" width="30" height="12" rx="6" fill="#fdbcb4" transform="rotate(-5 115 171)"/>
  <rect x="130" y="165" width="25" height="12" rx="6" fill="#fdbcb4"/>
  
  <!-- Hands gripping handle -->
  <circle cx="155" cy="175" r="6" fill="#fdbcb4"/>
  
  <!-- Handle/rope -->
  <rect x="155" y="170" width="15" height="8" rx="4" fill="#495057"/>
  
  <!-- Legs -->
  <rect x="108" y="195" width="14" height="35" rx="7" fill="#fdbcb4"/>
  <rect x="122" y="195" width="14" height="35" rx="7" fill="#fdbcb4"/>
  
  <!-- Lower legs -->
  <rect x="108" y="225" width="14" height="30" rx="7" fill="#fdbcb4"/>
  <rect x="122" y="225" width="14" height="30" rx="7" fill="#fdbcb4"/>
  
  <!-- Feet -->
  <ellipse cx="110" cy="265" rx="12" ry="6" fill="#2c2c2c"/>
  <ellipse cx="130" cy="265" rx="12" ry="6" fill="#2c2c2c"/>
  
  <!-- Movement arrow -->
  <path d="M170 180 L140 180 L145 175 M140 180 L145 185" stroke="#007bff" stroke-width="3" fill="none"/>
  <text x="75" y="175" fill="#007bff" font-family="Arial, sans-serif" font-size="12">Pull</text>
  
  <!-- Shoulder blade emphasis -->
  <ellipse cx="130" cy="165" rx="8" ry="12" fill="none" stroke="#dc3545" stroke-width="2"/>
  <text x="60" y="150" fill="#dc3545" font-family="Arial, sans-serif" font-size="10">Squeeze shoulder blades</text>
  
  <!-- Title -->
  <text x="150" y="30" text-anchor="middle" fill="#2c2c2c" font-family="Arial, sans-serif" font-size="18" font-weight="bold">Seated Row</text>
  
  <!-- Instructions -->
  <text x="150" y="320" text-anchor="middle" fill="#6c757d" font-family="Arial, sans-serif" font-size="12">Pull handle to abdomen</text>
  <text x="150" y="335" text-anchor="middle" fill="#6c757d" font-family="Arial, sans-serif" font-size="12">Squeeze shoulder blades together</text>
  <text x="150" y="350" text-anchor="middle" fill="#6c757d" font-family="Arial, sans-serif" font-size="12">Control the return</text>
</svg>